<svg width="96" height="96" viewBox="0 0 96 96" fill="none" xmlns="http://www.w3.org/2000/svg">
  <!-- Fundo gradiente -->
  <defs>
    <linearGradient id="buildingGradient" x1="0%" y1="0%" x2="100%" y2="100%">
      <stop offset="0%" style="stop-color:#4B5563;stop-opacity:1" />
      <stop offset="100%" style="stop-color:#1F2937;stop-opacity:1" />
    </linearGradient>
  </defs>
  
  <!-- Base do edifício -->
  <rect x="8" y="60" width="80" height="28" fill="url(#buildingGradient)" rx="2"/>
  
  <!-- Estrutura principal -->
  <rect x="12" y="20" width="72" height="40" fill="#6B7280" rx="2"/>
  
  <!-- Janelas -->
  <rect x="16" y="24" width="8" height="8" fill="#E5E7EB"/>
  <rect x="28" y="24" width="8" height="8" fill="#E5E7EB"/>
  <rect x="40" y="24" width="8" height="8" fill="#E5E7EB"/>
  <rect x="52" y="24" width="8" height="8" fill="#E5E7EB"/>
  <rect x="64" y="24" width="8" height="8" fill="#E5E7EB"/>
  
  <rect x="16" y="36" width="8" height="8" fill="#E5E7EB"/>
  <rect x="28" y="36" width="8" height="8" fill="#E5E7EB"/>
  <rect x="40" y="36" width="8" height="8" fill="#E5E7EB"/>
  <rect x="52" y="36" width="8" height="8" fill="#E5E7EB"/>
  <rect x="64" y="36" width="8" height="8" fill="#E5E7EB"/>
  
  <!-- Entrada -->
  <rect x="38" y="64" width="20" height="24" fill="#9CA3AF"/>
  <rect x="42" y="68" width="12" height="16" fill="#E5E7EB"/>
  
  <!-- Detalhes arquitetônicos -->
  <rect x="12" y="16" width="72" height="4" fill="#374151"/>
  <rect x="16" y="12" width="8" height="4" fill="#374151"/>
  <rect x="72" y="12" width="8" height="4" fill="#374151"/>
  
  <!-- Texto "Living One" -->
  <text x="48" y="90" text-anchor="middle" font-family="Arial, sans-serif" font-size="8" fill="#374151" font-weight="bold">LIVING ONE</text>
</svg> 